<?xml version="1.0" encoding="utf-8"?>
<!-- Generator: Adobe Illustrator 19.1.0, SVG Export Plug-In . SVG Version: 6.00 Build 0)  -->
<svg version="1.1" id="Layer_1" xmlns="http://www.w3.org/2000/svg" xmlns:xlink="http://www.w3.org/1999/xlink" x="0px" y="0px"
	 viewBox="-32 30.5 35 41.5" style="enable-background:new -32 30.5 35 41.5;" xml:space="preserve">
<g>
	<path d="M-14.5,72c-0.1,0-0.2,0-0.3-0.1c-9.5-3.9-19-11.1-16.9-35.2c0-0.3,0.2-0.5,0.5-0.6l16.4-5.5c0.2-0.1,0.3-0.1,0.5,0
		l16.4,5.6c0.3,0.1,0.5,0.3,0.5,0.6c2,18.8-3.4,30-16.8,35.2C-14.4,72-14.5,72-14.5,72z M-30.2,37.3c-1.9,22.5,6.4,29.3,15.7,33.1
		c12.6-5,17.4-15.2,15.7-33L-14.5,32L-30.2,37.3z"/>
</g>
<g>
	<path d="M-14.5,67c-0.1,0-0.2,0-0.3-0.1c-7.2-3-14.4-8.7-12.8-27.5c0-0.3,0.2-0.5,0.5-0.6l12.4-4.3c0.2-0.1,0.3-0.1,0.5,0L-2,38.8
		c0.3,0.1,0.5,0.3,0.5,0.6C0,54.2-4,62.9-14.3,67C-14.3,67-14.4,67-14.5,67z M-26.2,40c-1.3,17.2,4.8,22.5,11.7,25.4
		c9.3-3.8,12.9-11.7,11.6-25.3L-14.5,36L-26.2,40z"/>
</g>
<g>
	<path d="M-15.8,57.9c-0.2,0-0.4-0.1-0.5-0.2l-6.2-6.4c-0.3-0.3-0.3-0.8,0-1.1c0.3-0.3,0.8-0.3,1.1,0l5.6,5.8L-7,45.8
		c0.3-0.3,0.7-0.4,1.1-0.1c0.3,0.3,0.3,0.7,0.1,1.1l-9.4,10.9C-15.3,57.8-15.5,57.9-15.8,57.9C-15.8,57.9-15.8,57.9-15.8,57.9z"/>
</g>
</svg>
