<?xml version="1.0" encoding="utf-8"?>
<!-- Generator: Adobe Illustrator 19.1.0, SVG Export Plug-In . SVG Version: 6.00 Build 0)  -->
<svg version="1.1" id="Layer_1" xmlns="http://www.w3.org/2000/svg" xmlns:xlink="http://www.w3.org/1999/xlink" x="0px" y="0px"
	 viewBox="-24 16 51 70" style="enable-background:new -24 16 51 70;" xml:space="preserve">
<g>
	<path d="M7.2,86c-0.2,0-0.4,0-0.6-0.1l-25-11.7c-0.5-0.2-0.9-0.8-0.9-1.4V58.6c0-1-0.3-2.1-0.8-3.1c-1.4-2.7-3.9-8.5-3.9-16
		C-24,28.4-14.2,16-0.2,16c6.3,0,11.7,2.5,15.9,7.2c4.8,5.5,7.4,13.9,6.5,21.5c2.2,2.9,6.3,8.8,4.2,11.8c-1.1,1.6-2.8,2.1-4.3,2.2
		v4.4c0,4.7-3.8,8.5-8.6,8.5h-2.4c-1.4,0-2.5,1.1-2.5,2.5v10.3c0,0.5-0.5,1.1-0.7,1.3C7.7,85.9,7.5,86,7.2,86z M-16.3,71.9l22,10.3
		v-8c0-3,2.5-5.5,5.5-5.5h2.4c3.1,0,5.6-2.5,5.6-5.5v-6c0-0.4,0.2-0.9,0.5-1.2s0.8-0.4,1.2-0.3c0,0,2.2,0.4,3-0.9
		c0.5-0.8-1.3-4.8-4.5-8.7c-0.3-0.3-0.4-0.7-0.3-1.1c0.9-7-1.3-14.7-5.7-19.8C9.9,21.1,5.2,19-0.2,19C-12.4,19-21,29.8-21,39.5
		c0,6.9,2.2,12.1,3.6,14.7c0.7,1.4,1.1,2.9,1.1,4.5V71.9z"/>
</g>
<g>
	<path d="M-1.5,45.8c-3.7,0-6.8-3.1-6.8-6.8s3.1-6.8,6.8-6.8s6.8,3.1,6.8,6.8S2.2,45.8-1.5,45.8z M-1.5,34.8c-2.3,0-4.2,1.9-4.2,4.2
		s1.9,4.2,4.2,4.2s4.2-1.9,4.2-4.2S0.8,34.8-1.5,34.8z"/>
</g>
<g>
	<path d="M-1.5,55.3c-0.4,0-0.8,0-1.1-0.1c-0.5,0-1-0.4-1.2-0.8l-1.7-4c-0.1,0-0.1,0-0.2-0.1l-3.8,2.1c-0.4,0.2-1,0.2-1.4-0.1
		c-1.1-0.8-2.1-1.7-3-2.7c-0.3-0.4-0.4-0.9-0.2-1.3l1.7-4c0-0.1-0.1-0.1-0.1-0.2l-4.2-1.3c-0.5-0.1-0.8-0.5-0.9-1
		c-0.2-1-0.3-1.9-0.3-2.8c0-0.4,0-0.8,0.1-1.2c0-0.5,0.4-1,0.8-1.2l4-1.7c0-0.1,0-0.1,0.1-0.2l-2-3.7c-0.2-0.4-0.2-1,0.1-1.4
		c0.8-1.1,1.7-2.1,2.7-3c0.4-0.3,0.9-0.4,1.3-0.2l4,1.7c0.1,0,0.1-0.1,0.2-0.1l1.3-4.2c0.1-0.5,0.5-0.8,1-0.9
		c1.4-0.2,2.7-0.3,3.9-0.2c0.5,0,1,0.4,1.2,0.8l1.7,4c0.1,0,0.1,0,0.2,0.1l3.8-2.1c0.4-0.2,1-0.2,1.4,0.1c1.1,0.8,2.1,1.7,3,2.7
		c0.3,0.4,0.4,0.9,0.2,1.3l-1.7,4c0,0.1,0.1,0.1,0.1,0.2l4.2,1.3c0.5,0.1,0.8,0.5,0.9,1c0.2,1,0.3,1.9,0.3,2.8c0,0.4,0,0.8-0.1,1.1
		c0,0.5-0.4,1-0.8,1.2l-4,1.7c0,0.1,0,0.1-0.1,0.2l2.1,3.8c0.2,0.4,0.2,1-0.1,1.4c-0.8,1.1-1.7,2.1-2.7,3c-0.4,0.3-0.9,0.4-1.3,0.2
		l-4-1.7c-0.1,0-0.1,0.1-0.2,0.1l-1.2,4.2c-0.1,0.5-0.5,0.8-1,0.9C0.3,55.2-0.6,55.3-1.5,55.3z M-1.7,52.7c0.6,0,1.2,0,1.8-0.1
		l1.2-4c0.1-0.4,0.4-0.7,0.8-0.8c0.4-0.2,0.7-0.3,1-0.5s0.8-0.2,1.1-0.1L8,48.8c0.4-0.4,0.8-0.9,1.2-1.3l-2-3.6
		C7,43.6,7,43.1,7.1,42.8c0.1-0.3,0.3-0.7,0.4-1.1c0.1-0.4,0.4-0.7,0.8-0.8l3.8-1.6c0-0.1,0-0.1,0-0.2c0-0.5,0-1-0.1-1.6l-4-1.2
		c-0.4-0.1-0.7-0.4-0.8-0.8c-0.2-0.4-0.3-0.7-0.5-1c-0.2-0.3-0.2-0.8-0.1-1.1l1.6-3.8c-0.4-0.4-0.9-0.8-1.3-1.2l-3.6,2
		c-0.3,0.2-0.8,0.2-1.1,0c-0.3-0.1-0.7-0.3-1.1-0.4s-0.7-0.4-0.8-0.8l-1.6-3.8c-0.6,0-1.2,0-1.8,0.1l-1.2,4
		c-0.1,0.4-0.4,0.7-0.8,0.8c-0.4,0.2-0.7,0.3-1,0.5C-6.4,31-6.9,31-7.2,30.9l-3.8-1.7c-0.4,0.4-0.8,0.9-1.2,1.3l2,3.6
		c0.2,0.3,0.2,0.8,0,1.1c-0.1,0.3-0.3,0.7-0.4,1.1c-0.1,0.4-0.4,0.7-0.8,0.8l-3.8,1.6c0,0.1,0,0.1,0,0.2c0,0.5,0,1,0.1,1.6l4,1.2
		c0.4,0.1,0.7,0.4,0.8,0.8c0.2,0.4,0.3,0.7,0.5,1c0.2,0.3,0.2,0.8,0.1,1.1l-1.6,3.8c0.4,0.4,0.9,0.8,1.3,1.2l3.6-2
		c0.3-0.2,0.8-0.2,1.1-0.1c0.3,0.1,0.7,0.3,1.1,0.4s0.7,0.4,0.8,0.8L-1.7,52.7z"/>
</g>
</svg>
