<?xml version="1.0" encoding="utf-8"?>
<!-- Generator: Adobe Illustrator 19.1.0, SVG Export Plug-In . SVG Version: 6.00 Build 0)  -->
<svg version="1.1" id="Layer_1" xmlns="http://www.w3.org/2000/svg" xmlns:xlink="http://www.w3.org/1999/xlink" x="0px" y="0px"
	 viewBox="-32 30.5 33.9 40.5" style="enable-background:new -32 30.5 33.9 40.5;" xml:space="preserve">
<g>
	<path d="M-17.6,44.8c-3.9-2.1-3.9-2.3-3.9-4.9v-0.2c0-0.5-0.3-0.8-0.8-0.8s-0.8,0.4-0.8,0.8v0.2c0,3.2,0.3,3.9,4.7,6.2
		c0.2,0.1,0.3,0.1,0.4,0.1c0.2,0,0.5-0.1,0.7-0.4C-17.1,45.4-17.2,45-17.6,44.8z"/>
	<path d="M1.2,69.5H-1v-1.8c0-0.5-0.4-0.8-0.8-0.8h-2.3v-5.2c0-4.9-2.8-6.7-7.5-9.7c-0.6-0.3-1.2-0.8-1.9-1.2c0.7-0.4,1.4-0.9,2-1.3
		c4.7-3,7.5-4.8,7.5-9.7v-5.3h2.3c0.4,0,0.7-0.3,0.7-0.7V32h2.2C1.6,32,2,31.8,2,31.3s-0.4-0.8-0.8-0.8h-32.4
		c-0.5,0-0.8,0.4-0.8,0.8s0.3,0.7,0.8,0.7h2v1.7c0,0.5,0.3,0.8,0.8,0.8h2.5v5.9c0,4.1,1.8,5.2,6.1,8c1.1,0.7,2.3,1.5,3.7,2.4
		c-1.4,0.9-2.7,1.7-3.7,2.4c-4.3,2.7-6.1,3.9-6.1,8v5.7h-2.6c-0.5,0-0.8,0.4-0.8,0.8v1.8h-1.9c-0.5,0-0.8,0.2-0.8,0.7
		s0.4,0.8,0.8,0.8H1.2C1.6,71,2,70.8,2,70.3S1.6,69.5,1.2,69.5z M-27.6,32h25.2v1h-25.2V32z M-24.3,40.3v-5.8h18.8v5.4
		c0,4-2.2,5.5-6.8,8.4c-0.7,0.5-1.5,1-2.4,1.6c-1.6-1.2-3-2.1-4.2-2.8C-23.1,44.3-24.3,43.6-24.3,40.3z M-24.3,61.2
		c0-3.3,1.1-4.1,5.4-6.8c1.2-0.8,2.6-1.7,4.2-2.8c0.8,0.6,1.6,1.1,2.4,1.6c4.5,2.9,6.8,4.3,6.8,8.4v5.3h-18.8V61.2z M-27.7,68.5
		h25.2v1h-25.2V68.5z"/>
	<path d="M-11.4,55.8c-0.4-0.2-0.8-0.1-1,0.3c-0.2,0.4-0.1,0.8,0.3,1c3.9,2.1,3.9,2.3,3.9,4.9v0.3c0,0.5,0.4,0.8,0.8,0.8
		s0.7-0.4,0.7-0.9V62C-6.7,58.8-7,58.1-11.4,55.8z"/>
</g>
</svg>
