<?xml version="1.0" encoding="utf-8"?>
<!-- Generator: Adobe Illustrator 19.1.0, SVG Export Plug-In . SVG Version: 6.00 Build 0)  -->
<svg version="1.1" id="Layer_1" xmlns="http://www.w3.org/2000/svg" xmlns:xlink="http://www.w3.org/1999/xlink" x="0px" y="0px"
	 viewBox="-19 25 61 51" style="enable-background:new -19 25 61 51;" xml:space="preserve">
<g>
	<path d="M38.5,25h-30c-0.4,0-0.8,0.2-1,0.4L0.9,32H-4v-1c0-3-2.5-5.5-5.5-5.5S-15,28-15,31v1h-0.5c-1.9,0-3.5,1.6-3.5,3.5v37
		c0,1.9,1.6,3.5,3.5,3.5h54c1.9,0,3.5-1.6,3.5-3.5v-44C42,26.6,40.4,25,38.5,25z M-16,44h6.2v23H-16V44z M-7.2,44H9.7
		C6.2,46.7,4,50.8,4,55.5S6.2,64.3,9.7,67H-7.2V44z M7,55.5C7,49.2,12.2,44,18.5,44S30,49.2,30,55.5S24.8,67,18.5,67S7,61.8,7,55.5z
		 M33,55.5c0-4.7-2.2-8.8-5.7-11.5H39v23H27.3C30.8,64.3,33,60.2,33,55.5z M-12,31c0-1.4,1.1-2.5,2.5-2.5S-7,29.6-7,31v1h-5V31z
		 M-15.5,35H1.4c0.4,0,0.8-0.1,1.1-0.4L9.1,28h29.4c0.3,0,0.5,0.2,0.5,0.5V41h-55v-5.5C-16,35.2-15.8,35-15.5,35z M38.5,73h-54
		c-0.3,0-0.5-0.2-0.5-0.5V70h55v2.5C39,72.8,38.8,73,38.5,73z"/>
	<path d="M18.5,48c-4.1,0-7.5,3.4-7.5,7.5s3.4,7.5,7.5,7.5s7.5-3.4,7.5-7.5S22.6,48,18.5,48z M18.5,60C16,60,14,58,14,55.5
		s2-4.5,4.5-4.5s4.5,2,4.5,4.5S21,60,18.5,60z"/>
	<path d="M24.5,35.7h10c0.7,0,1.2-0.5,1.2-1.2s-0.5-1.2-1.2-1.2h-10c-0.7,0-1.2,0.5-1.2,1.2S23.8,35.7,24.5,35.7z"/>
	<path d="M18.5,35.7h2c0.7,0,1.2-0.5,1.2-1.2s-0.5-1.2-1.2-1.2h-2c-0.7,0-1.2,0.5-1.2,1.2S17.8,35.7,18.5,35.7z"/>
</g>
</svg>
