<?xml version="1.0" encoding="utf-8"?>
<!-- Generator: Adobe Illustrator 19.1.0, SVG Export Plug-In . SVG Version: 6.00 Build 0)  -->
<svg version="1.1" id="Layer_1" xmlns="http://www.w3.org/2000/svg" xmlns:xlink="http://www.w3.org/1999/xlink" x="0px" y="0px"
	 viewBox="-20 22.8 58 57.2" style="enable-background:new -20 22.8 58 57.2;" xml:space="preserve">
<path d="M35.3,25.8c-3.3-3.3-9-5.6-17.2,2.7l-33.7,33.6c-0.2,0.2-0.3,0.4-0.4,0.7l-4,15.3c-0.1,0.5,0,1,0.4,1.4
	c0.3,0.3,0.7,0.5,1.1,0.5c0.1,0,0.2,0,0.3,0l15.9-3.7c0.2-0.1,0.4-0.2,0.5-0.3c0,0,0.1,0,0.1-0.1c0,0,0.1,0,0.1-0.1l34.3-34.3
	C40.3,34,38.3,28.8,35.3,25.8z M28,42l-9.6-9.7l1.8-1.8l9.6,9.7L28,42z M-13.1,73.1c-0.5-0.5-1.2-0.5-1.7,0l-1,1l2.4-9.3l4.1,0.5
	l-0.7,3.5c-0.1,0.5,0.1,0.9,0.4,1.3c0.3,0.4,0.8,0.6,1.3,0.5l3.9-0.5l0.2,3.7L-14.3,76l1.2-1.2C-12.6,74.3-12.6,73.6-13.1,73.1z
	 M-1.5,68.4l23-23.1c0.5-0.5,0.5-1.2,0-1.7s-1.2-0.5-1.7,0L-3.1,66.8l-3.4,0.4l0.6-3.1c0-0.1,0-0.1,0-0.2l23-23.1
	c0.5-0.5,0.5-1.2,0-1.7s-1.2-0.5-1.7,0l-23,23.2l-3.5-0.4l27.4-27.4l9.6,9.7L-1.3,71.4L-1.5,68.4z M31.9,38.1l-9.5-9.4
	C28,24.2,31.2,26,33.2,28C35,29.7,36.7,32.6,31.9,38.1z"/>
</svg>
