<?xml version="1.0" encoding="utf-8"?>
<!-- Generator: Adobe Illustrator 19.1.0, SVG Export Plug-In . SVG Version: 6.00 Build 0)  -->
<svg version="1.1" id="Layer_1" xmlns="http://www.w3.org/2000/svg" xmlns:xlink="http://www.w3.org/1999/xlink" x="0px" y="0px"
	 viewBox="-28 30.8 41.7 41.2" style="enable-background:new -28 30.8 41.7 41.2;" xml:space="preserve">
<path d="M12.6,30.8H-7.3c-0.5,0-0.8,0.4-0.8,0.8v2.5l-7.4,1.9c-0.4,0.1-0.6,0.5-0.5,0.9l3.8,14.5l-4.1,4c-0.6-0.8-1.6-1.3-2.7-1.3
	h-5.6c-1.9,0-3.5,1.6-3.5,3.5v11c0,1.9,1.6,3.5,3.5,3.5h5.6c1.6,0,2.9-1,3.3-2.4c0.9,1.1,2.3,2.1,5.4,2.1h4.1h9.9h8.9
	c0.4,0,0.8-0.3,0.8-0.7V31.6C13.4,31.1,13,30.8,12.6,30.8z M-17,67.5c0,0.1,0,0.2,0,0.3v0.7c0,1.1-0.9,2-2,2h-5.6c-1.1,0-2-0.9-2-2
	v-11c0-1.1,0.9-2,2-2h2.2v8.8c0,0.5,0.4,0.8,0.8,0.8s0.8-0.3,0.8-0.8v-8.8h1.8c1.1,0,2,0.9,2,2V67.5z M-14.4,37.2l6.4-1.6v2.8
	l-0.7,0.2c-0.4,0.1-0.6,0.5-0.5,0.9c0.2,1-0.4,2-1.4,2.3c-0.2,0-0.4,0.1-0.5,0.3c-0.1,0.2-0.2,0.4-0.1,0.6l3,11.3H-10l-0.7-2.4
	c0-0.1,0-0.1,0-0.2L-14.4,37.2z M-8,41.1v7.3l-1.5-5.7C-8.8,42.4-8.3,41.8-8,41.1z M3.7,70.1h-14c-2.9,0-3.9-1.2-4.7-2.2
	c-0.2-0.2-0.4-0.4-0.5-0.6v-9.8c0-0.3-0.1-0.6-0.1-0.9l3.9-3.8l0.7,2.1c0.1,0.3,0.4,0.5,0.7,0.5H5.3c0.7,0,1.3,0.6,1.3,1.3
	c0,0.7-0.6,1.2-1.2,1.3h-7.9c-0.4,0-0.7,0.4-0.7,0.9c0.1,0.4,0.4,0.8,0.8,0.8H8.1c0.7,0,1.2,0.5,1.2,1.2c0,0.7-0.6,1.2-1.2,1.2H-2.6
	c-0.5,0-0.8,0.3-0.8,0.7c0,0.5,0.3,0.8,0.7,0.8h8.9c0.7,0,1.2,0.5,1.2,1.2c0,0.7-0.6,1.2-1.2,1.2h-8.9c-0.4,0-0.7,0.4-0.7,0.9
	c0,0.4,0.4,0.7,0.8,0.7h6.3c0.7,0,1.2,0.7,1.2,1.3C4.9,69.5,4.3,70.1,3.7,70.1z M5.5,53.9c0.7-0.7,1.1-1.6,1.1-2.7
	c0-2.1-1.7-3.8-3.8-3.8S-1,49.2-1,51.3c0,1.1,0.4,2,1.1,2.7h-3.5v-16c1.3-0.3,2.3-1.3,2.5-2.6h7c0.3,1.3,1.3,2.3,2.5,2.6V58v0.1
	C8.6,58,8.4,58,8,58H7.7C7.9,57.6,8,57.2,8,56.7C8,55.2,6.8,54,5.5,53.9z M5.1,51.3c0,1.3-1,2.3-2.3,2.3s-2.3-1-2.3-2.3
	c0-1.3,1-2.3,2.3-2.3S5.1,50.1,5.1,51.3z M11.8,70.1H6c0.2-0.5,0.4-1.1,0.4-1.8c0-0.5-0.1-0.8-0.3-1.2h0.2c1.5,0,2.7-1.2,2.7-2.7
	c0-0.4-0.1-0.8-0.3-1.2c1.2-0.3,2.1-1.3,2.1-2.6c0-0.4-0.1-0.8-0.3-1.2V37.4c0-0.5-0.4-0.8-0.8-0.8c-1.1,0-1.9-0.9-1.9-1.9
	c0-0.5-0.4-0.8-0.8-0.8h-8.3c-0.5,0-0.8,0.4-0.8,0.8c0,1-0.9,1.8-2,1.8c-0.5,0-0.8,0.4-0.8,0.8v16.7h-1.5V32.3h18.3V70.1z"/>
</svg>
