<?xml version="1.0" encoding="utf-8"?>
<!-- Generator: Adobe Illustrator 19.1.0, SVG Export Plug-In . SVG Version: 6.00 Build 0)  -->
<svg version="1.1" id="Layer_1" xmlns="http://www.w3.org/2000/svg" xmlns:xlink="http://www.w3.org/1999/xlink" x="0px" y="0px"
	 viewBox="-19 16 60 69" style="enable-background:new -19 16 60 69;" xml:space="preserve">
<g>
	<path d="M13.1,21c-0.9-1-2.1-1.5-3.5-1.5c-1.5,0-2.8,0.6-3.8,1.6c-1.8,1.8-2,4.7-0.6,6.7c-0.4,2.6-2.6,13-11.5,21.9
		c-3.5,3.5-7.9,7.7-11,10.7c-2.2,2-2.3,5.5-0.2,7.7l6,6.3c1,1.1,2.4,1.7,3.9,1.7c1.6,0,3-0.6,4.1-1.6c0.4-0.5,0.9-1,1.4-1.5
		L8.2,83.3c1.1,1.1,2.5,1.7,4,1.7s2.9-0.6,3.9-1.6c2.2-2.2,2.2-5.8,0-8l-4.9-4.9l2.2-2.4c1.7-1.8,1.7-4.7,0-6.5l-1.9-2.1
		c7.1-5.1,15.4-7.1,17.8-7.6c0.9,0.8,1.9,1.2,3.1,1.2c1.4,0,2.7-0.5,3.8-1.6c2-2,2.1-5.3,0.1-7.3L13.1,21z M6.2,60l-9.4-9.3
		C4,43,6.7,34.6,7.7,30.4l19.1,19.1C22.3,50.6,13.1,53.5,6.2,60z M-7.5,73.2c-0.7,0-1.3-0.3-1.8-0.8l-6-6.3c-0.9-1-0.9-2.6,0.1-3.5
		c2.8-2.7,6.6-6.5,9.9-9.8L4,62.1c-3.2,3.4-7,7.3-9.7,10.3C-6.2,72.9-6.8,73.2-7.5,73.2z M14.1,81.2c-1,1-2.8,1-3.8,0L-0.1,70.8
		c1.2-1.3,2.4-2.6,3.6-3.9L14,77.4C15.1,78.5,15.1,80.2,14.1,81.2z M11.2,63.6c0.6,0.7,0.6,1.7,0,2.4l-2.1,2.3l-3.5-3.5
		c0.7-0.7,1.3-1.4,2-2c0.5-0.5,1-1,1.5-1.5L11.2,63.6z M34.1,49.4c-0.9,0.8-2.3,0.9-3.1,0.1L7.8,26.3C7,25.5,7,24.1,7.9,23.2
		c0.4-0.5,1-0.7,1.6-0.7s1.1,0.2,1.5,0.6l23.2,23.2C35,47.1,35,48.5,34.1,49.4z"/>
	<path d="M-3.9,60.9c-0.5-0.5-1.2-0.5-1.7,0l-3.7,3.7c-0.5,0.5-0.5,1.2,0,1.7c0.2,0.2,0.5,0.3,0.8,0.3s0.6-0.1,0.9-0.3l3.7-3.7
		C-3.4,62.1-3.4,61.4-3.9,60.9z"/>
	<path d="M30.4,28.1c0.3,0,0.7-0.2,1-0.5l4.7-4.7c0.6-0.6,0.6-1.5,0-2.1s-1.5-0.6-2.1,0l-4.7,4.8c-0.6,0.6-0.6,1.5,0,2.1
		C29.6,28,30,28.1,30.4,28.1z"/>
	<path d="M22.8,24.1c0.8,0,1.5-0.7,1.5-1.5v-5.1c0-0.8-0.7-1.5-1.5-1.5s-1.5,0.7-1.5,1.5v5.1C21.3,23.4,22,24.1,22.8,24.1z"/>
	<path d="M39.5,32.8h-5.1c-0.8,0-1.5,0.7-1.5,1.5s0.7,1.5,1.5,1.5h5.1c0.8,0,1.5-0.7,1.5-1.5S40.3,32.8,39.5,32.8z"/>
</g>
</svg>
