<?xml version="1.0" encoding="utf-8"?>
<!-- Generator: Adobe Illustrator 19.1.0, SVG Export Plug-In . SVG Version: 6.00 Build 0)  -->
<svg version="1.1" id="Layer_1" xmlns="http://www.w3.org/2000/svg" xmlns:xlink="http://www.w3.org/1999/xlink" x="0px" y="0px"
	 viewBox="0 0 46.5 38.7" style="enable-background:new 0 0 46.5 38.7;" xml:space="preserve">
<g>
	<path d="M45.5,19.1c-0.6-0.4-1.5-0.7-2.5-0.9c-0.6-0.1-1-0.5-1.2-1.1c-1.1-4.1-3.1-6.6-6.1-7.7V2.8c0-0.3-0.2-0.5-0.4-0.7
		c-0.3-0.1-0.6-0.1-0.8,0.1l-5.7,4.3c-1.1-0.6-2.6-1-4.4-1.3c0.2-0.4,0.3-0.9,0.3-1.4c0-2.2-1.8-4-4-4s-4,1.8-4,4
		c0,0.5,0.1,1,0.3,1.5C14.6,5.8,11.6,6.7,9,8.7c-2.8,2.1-4.4,4.9-4.8,8.1c-0.5-0.2-1.1-0.2-1.7-0.1c-1.1,0.2-2.1,1.1-2.4,2.1
		c-0.2,0.6-0.3,1.8,1,3C1.3,21.9,1.5,22,1.6,22c0.2,0,0.4-0.1,0.5-0.2c0.3-0.3,0.3-0.8,0-1.1c-0.4-0.4-0.8-0.9-0.6-1.5
		c0.1-0.5,0.6-0.9,1.2-1c0.3-0.1,0.8-0.1,1.2,0.3c0,3.1,1,6.7,3.2,10.5c1.8,3.2,2.8,6.7,3.2,8.3H7.7c-0.4,0-0.8,0.3-0.8,0.8
		s0.3,0.8,0.8,0.8h9.4c0.4,0,0.7-0.3,0.7-0.7l0.5-4c2.6,0.7,5.3,0.9,8.3,0.6l0.7,2.6H26c-0.4,0-0.8,0.3-0.8,0.8s0.3,0.8,0.8,0.8
		h11.2c0.4,0,0.8-0.3,0.8-0.8s-0.3-0.8-0.8-0.8h-3l-0.3-4.5c3.1-0.6,5.7-2.3,7.9-5l1.2,0c0.9,0,1.7-0.6,2-1.4
		c0.7-1.6,1.3-3.4,1.5-5.1C46.6,20.3,46.2,19.5,45.5,19.1z M20.7,1.5c1.4,0,2.5,1.1,2.5,2.5c0,1.4-1.1,2.5-2.5,2.5S18.2,5.3,18.2,4
		C18.2,2.6,19.3,1.5,20.7,1.5z M43.6,25.7c-0.1,0.3-0.4,0.5-0.7,0.5l-1.6,0.1c-0.2,0-0.4,0.1-0.6,0.3c-2.1,2.7-4.7,4.3-7.8,4.8
		c-0.4,0.1-0.7,0.4-0.6,0.8l0.3,5.1h-3.8l-1-3.6c-0.1-0.4-0.4-0.6-0.8-0.5c-3.4,0.4-6.4,0.1-9.2-0.7c-0.2-0.1-0.4,0-0.6,0.1
		c-0.2,0.1-0.3,0.3-0.3,0.5l-0.5,4.2h-4.5c-0.3-1.5-1.4-5.3-3.4-9C6,23.6,2.8,15.2,9.9,9.9c2.7-2,5.8-2.8,8.1-3.1
		c0.7,0.7,1.7,1.1,2.7,1.1c1.1,0,2.1-0.5,2.8-1.2c2.1,0.2,3.8,0.7,4.9,1.4c0.3,0.2,0.6,0.2,0.9,0l4.9-3.7V10c0,0.3,0.2,0.6,0.6,0.7
		c2.8,0.8,4.6,3,5.6,6.8c0.3,1.1,1.2,2,2.4,2.2c0.9,0.1,1.5,0.4,1.9,0.6c0.2,0.1,0.3,0.4,0.3,0.7C44.8,22.6,44.2,24.2,43.6,25.7z"/>
	<path d="M24,9.3c-2.4-0.7-4.6-0.7-7.2,0c-0.4,0.1-0.7,0.5-0.6,0.9c0.1,0.4,0.5,0.7,0.9,0.6c2.4-0.6,4.3-0.6,6.5,0
		c0.1,0,0.1,0,0.2,0c0.3,0,0.6-0.2,0.7-0.6C24.6,9.8,24.4,9.4,24,9.3z"/>
	<path d="M9.3,20.2c0-0.4-0.3-0.8-0.7-0.8c-0.4,0-0.8,0.3-0.8,0.7c-0.1,2.1,0.7,4.5,2.2,6.6c0.1,0.2,0.4,0.3,0.6,0.3
		c0.1,0,0.3,0,0.4-0.1c0.3-0.2,0.4-0.7,0.2-1C10,24.1,9.3,21.9,9.3,20.2z"/>
	<circle cx="34.9" cy="16.6" r="1"/>
</g>
</svg>
