<?xml version="1.0" encoding="utf-8"?>
<!-- Generator: Adobe Illustrator 19.1.0, SVG Export Plug-In . SVG Version: 6.00 Build 0)  -->
<svg version="1.1" id="Layer_1" xmlns="http://www.w3.org/2000/svg" xmlns:xlink="http://www.w3.org/1999/xlink" x="0px" y="0px"
	 viewBox="0 0 58.8 61.8" style="enable-background:new 0 0 58.8 61.8;" xml:space="preserve">
<g>
	<path d="M48.3,26.5c-0.7,0-1.4-0.5-1.5-1.3c-1-6-6.3-11.3-12.9-12.7c-0.8-0.2-1.3-1-1.1-1.8c0.2-0.8,1-1.3,1.8-1.1
		c7.8,1.7,13.9,7.8,15.2,15.1c0.1,0.8-0.4,1.6-1.2,1.7C48.5,26.5,48.4,26.5,48.3,26.5z"/>
</g>
<g>
	<path d="M41.3,29.2c-0.7,0-1.4-0.5-1.5-1.3c-0.6-3.4-3.6-6.4-7.3-7.2c-0.8-0.2-1.3-1-1.1-1.8c0.2-0.8,1-1.3,1.8-1.1
		c5,1.1,8.9,5,9.6,9.6c0.1,0.8-0.4,1.6-1.2,1.7C41.5,29.2,41.4,29.2,41.3,29.2z"/>
</g>
<g>
	<path d="M57.3,27.6c-0.7,0-1.4-0.5-1.5-1.3c-1.6-12-10-20.7-22.4-23.3c-0.8-0.2-1.3-1-1.2-1.8c0.2-0.8,1-1.3,1.8-1.2
		c13.7,2.9,22.9,12.5,24.8,25.8c0.1,0.8-0.5,1.6-1.3,1.7C57.4,27.6,57.3,27.6,57.3,27.6z"/>
</g>
<g>
	<path d="M38.7,61.8c-7.3,0-15.8-5.2-22.2-10.9C6.1,41.6-3.2,26.7,1,16.2c1-2.4,3.6-4.5,5.7-6c2.1-1.5,5.1-1.2,6.9,0.7l6.7,7.3
		c2.1,2.3,2,5.8-0.2,8c0,0-0.1,0.1-0.1,0.1l-4.2,3.3c3.7,6.5,9.4,12.5,15.4,16.2l5.2-4.9c0,0,0.1-0.1,0.1-0.1
		c2.2-1.7,5.2-1.5,7.2,0.5l5.8,5.7c2.4,2.3,2.5,6.2,0.2,8.6c-0.4,0.6-2.8,3.6-5.2,4.8C42.8,61.4,40.8,61.8,38.7,61.8z M9.8,12.1
		c-0.4,0-0.9,0.1-1.3,0.4c-1.7,1.2-4,3-4.7,4.7c-3.5,8.8,4.7,22.5,14.7,31.4c9.5,8.5,19.1,12.1,24.7,9.1c1.6-0.9,3.6-3.2,4.2-4.1
		c0,0,0.1-0.1,0.1-0.1c1.2-1.3,1.2-3.3-0.1-4.5l-5.8-5.7c-0.9-0.9-2.2-1-3.2-0.3l-5.9,5.6c-0.5,0.5-1.2,0.5-1.8,0.2
		c-7.1-4.1-14-11.4-18.1-19c-0.3-0.6-0.2-1.4,0.4-1.9l5.1-4c1-1.1,1.1-2.7,0.1-3.8l-6.7-7.3C11,12.4,10.4,12.1,9.8,12.1z"/>
</g>
</svg>
