<?xml version="1.0" encoding="utf-8"?>
<!-- Generator: Adobe Illustrator 19.1.0, SVG Export Plug-In . SVG Version: 6.00 Build 0)  -->
<svg version="1.1" id="Layer_1" xmlns="http://www.w3.org/2000/svg" xmlns:xlink="http://www.w3.org/1999/xlink" x="0px" y="0px"
	 viewBox="-29 29.1 40.5 42.9" style="enable-background:new -29 29.1 40.5 42.9;" xml:space="preserve">
<g>
	<path d="M-0.1,46.2c0-5-4-9-9-9s-9,4-9,9s4.1,9,9,9C-4.1,55.2-0.1,51.2-0.1,46.2z M-9,53.8c-4.1,0-7.5-3.4-7.5-7.5s3.4-7.5,7.5-7.5
		c4.2,0,7.5,3.4,7.5,7.5C-1.6,50.4-5,53.8-9,53.8z"/>
	<path d="M-4.1,47c-0.4-0.1-0.8,0.1-0.9,0.5c-0.3,1.2-1.2,2.2-2.3,2.7c-0.4,0.2-0.6,0.6-0.4,1c0.1,0.2,0.2,0.3,0.5,0.4
		c0.1,0,0.2,0,0.4-0.1c1.6-0.7,2.7-2,3.2-3.6C-3.5,47.5-3.7,47.1-4.1,47z"/>
	<path d="M11.1,65.8l-7.2-9.9l1.8-0.4c0.2-0.1,0.4-0.2,0.5-0.4s0.2-0.4,0.1-0.6l-1.4-4.4L8.3,47c0.1-0.2,0.2-0.4,0.2-0.6
		c0-0.3-0.1-0.4-0.2-0.6l-3.4-3.1l1.4-4.4c0-0.2,0-0.4-0.1-0.6s-0.3-0.3-0.5-0.4l-4.5-1l-1-4.5c-0.1-0.2-0.2-0.4-0.4-0.5
		s-0.4-0.1-0.6-0.1l-4.4,1.4l-3.1-3.3c-0.2-0.2-0.4-0.2-0.6-0.2c-0.3,0-0.5,0.1-0.6,0.3l-3,3.3l-4.4-1.4c-0.2-0.1-0.4-0.1-0.6,0
		s-0.4,0.3-0.4,0.5l-1,4.5l-4.5,1c-0.2,0-0.4,0.2-0.5,0.4s-0.2,0.4-0.1,0.6l1.4,4.3l-3.4,3.1c-0.2,0.2-0.2,0.4-0.2,0.5
		c0,0.3,0.1,0.5,0.2,0.6l3.4,3.1l-1.4,4.4c-0.1,0.2-0.2,0.5-0.1,0.7s0.2,0.3,0.5,0.4l1.9,0.4l-7.2,9.9c-0.1,0.2-0.1,0.5,0.1,0.7
		c0.1,0.2,0.4,0.4,0.7,0.4l4.6,0.2l1.6,4.5c0.1,0.3,0.3,0.5,0.6,0.5h0.1c0.3,0,0.5-0.1,0.6-0.3l8.2-11.3l2.9,3.1
		c0.4,0.4,1.1,0.3,1.6-0.1l2.8-3.1l8.2,11.4C3.2,71.9,3.3,72,3.5,72h0.1c0.3,0,0.5-0.2,0.6-0.5L5.8,67h4.8c0.2,0,0.5-0.2,0.6-0.4
		C11.3,66.3,11.3,66,11.1,65.8z M-21.1,69.7l-1.3-3.6c-0.1-0.3-0.4-0.5-0.7-0.5l-3.9-0.2l6.8-9.3l1.1,0.2l1,4.5
		c0.1,0.2,0.2,0.4,0.4,0.5s0.4,0.2,0.6,0.1l2.6-0.8L-21.1,69.7z M-8.9,61.7l-2.9-3.2c-0.2-0.1-0.4-0.2-0.6-0.2c-0.1,0-0.1,0-0.1,0
		l-4.1,1.3l-0.9-4.2c-0.1-0.3-0.3-0.5-0.6-0.6l-4.2-0.9l1.3-4.1c0.1-0.3,0-0.6-0.2-0.8l-3.2-2.9l3.2-2.8c0.2-0.2,0.3-0.5,0.2-0.8
		l-1.3-4.1l4.2-0.8c0.3-0.1,0.5-0.3,0.6-0.6l0.9-4.2l4.1,1.3c0.3,0.1,0.6,0,0.7-0.2l2.9-3.2l2.9,3.2c0.2,0.2,0.5,0.3,0.8,0.2
		l4.1-1.3l0.9,4c0.1,0.3,0.3,0.5,0.6,0.6l4.2,0.9l-1.3,4.1c-0.1,0.3,0,0.6,0.2,0.8l3.2,2.9L3.5,49c-0.2,0.2-0.3,0.5-0.2,0.8L4.5,54
		l-4.2,0.9C0,55-0.2,55.2-0.3,55.5l-0.9,4.2l-4.1-1.3c-0.3-0.1-0.6,0-0.8,0.2L-8.9,61.7z M5.3,65.7c-0.3,0-0.6,0.2-0.7,0.5l-1.3,3.6
		l-6.5-9.1l2.4,0.8c0.3,0.1,0.5,0,0.7-0.1s0.2-0.3,0.3-0.5l1-4.5l1.1-0.3l6.8,9.4L5.3,65.7z"/>
</g>
</svg>
