<?xml version="1.0" encoding="utf-8"?>
<!-- Generator: Adobe Illustrator 19.1.0, SVG Export Plug-In . SVG Version: 6.00 Build 0)  -->
<svg version="1.1" id="Layer_1" xmlns="http://www.w3.org/2000/svg" xmlns:xlink="http://www.w3.org/1999/xlink" x="0px" y="0px"
	 viewBox="-22 18.6 54 64.4" style="enable-background:new -22 18.6 54 64.4;" xml:space="preserve">
<g>
	<path d="M4.9,83c-0.2,0-0.4,0-0.7-0.1C-13.2,74.4-22,57.2-22,31.5c0-0.8,0.7-1.5,1.5-1.5c5.1,0,9.2-3,13.1-5.8
		c3.8-2.8,7.7-5.6,12.4-5.6c6.2,0,10.2,3.1,14,6.1c3.4,2.7,6.7,5.3,11.5,5.3c0.8,0,1.5,0.7,1.5,1.5c0,23.4-4.5,41-26.5,51.3
		C5.3,82.9,5.1,83,4.9,83z M-19,32.9c0.3,23.3,8.3,39.1,23.9,46.9C22.1,71.5,28.8,58.6,29,32.9c-5.1-0.5-8.5-3.2-11.9-5.9
		c-3.5-2.7-6.9-5.4-12.1-5.4c-3.7,0-7.1,2.4-10.6,5C-9.4,29.3-13.6,32.4-19,32.9z"/>
</g>
<g>
	<path d="M12.6,71c-0.4,0-0.7-0.2-1-0.5c-0.4-0.5-0.3-1.3,0.3-1.7c3.1-2.3,5.6-6.2,6.6-7.8c0.3-0.6,1.1-0.8,1.6-0.4
		c0.6,0.3,0.8,1.1,0.4,1.6c-1,1.7-3.8,6-7.2,8.5C13.1,70.9,12.8,71,12.6,71z"/>
</g>
<g>
	<path d="M-13.5,35.9c-0.3,0-0.7-0.3-0.8-0.9c-0.1-0.7,0.3-1.3,1-1.4c3.2-0.6,5.6-2.4,8.3-4.4c1-0.7,2-1.5,3.1-2.2
		c0.6-0.4,1.3-0.2,1.7,0.3C0.2,27.9,0,28.6-0.5,29c-1,0.7-2,1.4-3,2.1c-2.7,2-5.4,4.1-9.1,4.8C-12.9,36-13.2,35.9-13.5,35.9z"/>
</g>
<g>
	<path d="M3.1,57c-0.4,0-0.7-0.1-1-0.4l-5.7-5.4c-0.6-0.6-0.6-1.5-0.1-2.1c0.6-0.6,1.5-0.6,2.1-0.1l4.5,4.2l10-12.9
		c0.5-0.7,1.4-0.8,2.1-0.3c0.7,0.5,0.8,1.4,0.3,2.1l-11,14.2c-0.4,0.4-0.7,0.6-0.9,0.6C3.3,57,3.1,57,3.1,57z"/>
</g>
</svg>
