<?xml version="1.0" encoding="utf-8"?>
<!-- Generator: Adobe Illustrator 19.1.0, SVG Export Plug-In . SVG Version: 6.00 Build 0)  -->
<svg version="1.1" id="Layer_1" xmlns="http://www.w3.org/2000/svg" xmlns:xlink="http://www.w3.org/1999/xlink" x="0px" y="0px"
	 viewBox="-16 18 66 65" style="enable-background:new -16 18 66 65;" xml:space="preserve">
<g fill="#fff">
	<path d="M35,57.5c0-0.6-0.4-1-1-1H10.5V33c0-0.6-0.4-1-1-1c-1.2,0-2.4,0.1-3.5,0.3V19c0-0.6-0.4-1-1-1h-20c-0.6,0-1,0.4-1,1v13
		c0,0.6,0.4,1,1,1h12.6l1.3,1.3C-10.2,38.5-16,47.5-16,57.5C-16,71.6-4.6,83,9.5,83c6.2,0,11.8-2.2,16.3-5.8l3.5,3.5
		c0.2,0.2,0.4,0.3,0.7,0.3s0.5-0.1,0.7-0.3c0.4-0.4,0.4-1,0-1.4l-3.5-3.5C32,71.2,35,64.7,35,57.5z M-2,31h-12V20H4v16.6l-5.3-5.3
		C-1.5,31.1-1.7,31-2,31z M24.4,73c1-1.1,1.6-2.5,1.6-4c0-3.3-2.7-6-6-6s-6,2.7-6,6s2.7,6,6,6c1,0,2-0.3,2.9-0.7l1.5,1.5
		C20.3,79,15.1,81,9.5,81C-3.5,81-14,70.5-14,57.5c0-9.5,5.7-18,14.4-21.7l3.9,3.9C4.5,39.9,4.7,40,5,40c0.1,0,0.3,0,0.4-0.1
		C5.8,39.8,6,39.4,6,39v-4.8h0.1C6.9,34.1,7.7,34,8.5,34v23.5c0,0.6,0.4,1,1,1H33c-0.2,6.2-3,11.9-7.2,15.9L24.4,73z M20,73
		c-2.2,0-4-1.8-4-4s1.8-4,4-4s4,1.8,4,4S22.2,73,20,73z"/>
	<path d="M39,44.3V30.8c0-0.6-0.4-1-1-1h-6c-0.6,0-1,0.4-1,1v1.9C26.4,29,20.8,27,15,27c-0.6,0-1,0.4-1,1v24.5c0,0.6,0.4,1,1,1h24.5
		c0.6,0,1-0.4,1-0.9c0-2.6-0.4-5.1-1.1-7.5C39.3,44.7,39.1,44.5,39,44.3z M33,31.8h4v15h-4V31.8z M16,51.5V29
		c5.4,0.2,10.6,2.3,14.6,5.9c0.1,0.1,0.3,0.2,0.4,0.2v12.7c0,0.6,0.4,1,1,1h6c0.1,0,0.1,0,0.2,0c0.1,0.9,0.2,1.8,0.3,2.7
		C38.5,51.5,16,51.5,16,51.5z"/>
	<path d="M0,22h-10c-0.6,0-1,0.4-1,1s0.4,1,1,1H0c0.6,0,1-0.4,1-1S0.6,22,0,22z"/>
	<path d="M-4,26h-6c-0.6,0-1,0.4-1,1s0.4,1,1,1h6c0.6,0,1-0.4,1-1S-3.4,26-4,26z"/>
	<path d="M2.2,50.8c-0.4-0.4-1-0.4-1.4,0l-8.5,8.5c-0.4,0.4-0.4,1,0,1.4C-7.5,60.9-7.3,61-7,61s0.5-0.1,0.7-0.3l8.5-8.5
		C2.6,51.8,2.6,51.2,2.2,50.8z"/>
	<path d="M-3.4,51.3c0-1.8-1.5-3.3-3.3-3.3s-3.3,1.6-3.3,3.3s1.5,3.2,3.3,3.2C-5,54.5-3.4,53.1-3.4,51.3z M-8,51.3
		c0-0.7,0.6-1.3,1.3-1.3c0.6,0,1.3,0.6,1.3,1.3s-0.6,1.3-1.3,1.3S-8,52-8,51.3z"/>
	<path d="M2.3,55.9c-1.8,0-3.3,1.5-3.3,3.3s1.5,3.3,3.3,3.3c1.7,0,3.3-1.5,3.3-3.3S4.1,55.9,2.3,55.9z M2.3,60.6
		C1.6,60.6,1,60,1,59.3S1.6,58,2.3,58c0.6,0,1.3,0.6,1.3,1.3S3,60.6,2.3,60.6z"/>
	<path d="M49,24.8h-6c-0.6,0-1,0.4-1,1v22c0,0.6,0.4,1,1,1h6c0.6,0,1-0.5,1-1v-22C50,25.2,49.6,24.8,49,24.8z M48,46.8h-4v-20h4
		V46.8z"/>
	<path d="M27,33.8h-6c-0.6,0-1,0.4-1,1v13c0,0.6,0.4,1,1,1h6c0.6,0,1-0.5,1-1v-13C28,34.2,27.6,33.8,27,33.8z M26,46.8h-4v-11h4
		V46.8z"/>
	<rect x="1" y="68" width="2.4" height="2.4"/>
	<rect x="5.3" y="68" width="2.4" height="2.4"/>
	<rect x="9.5" y="68" width="2.4" height="2.4"/>
</g>
</svg>
